<?xml version="1.0" encoding="UTF-8" standalone="no"?>
<svg xmlns="http://www.w3.org/2000/svg" width="90.40614100000002" height="160.18433000000002" viewBox="0 0 90.40614100000002 160.18433000000002">
  <defs>
    <clipPath id="tileClip"><rect x="0" y="0" width="90.40614100000002" height="160.18433000000002" /></clipPath>
  </defs>
  <g transform="translate(-59.717099, -107.74328)" clip-path="url(#tileClip)">

    <path
       id="path1719"
       d="M 104.94515,267.92761 H 59.717099 V 107.74328 h 45.228051 z"
       style="fill:#0e2b56;fill-opacity:1;fill-rule:nonzero;stroke:none;stroke-width:0.199672" />
    <path
       id="path1720"
       d="M 150.12324,267.92761 H 104.89519 V 107.74328 h 45.22805 z"
       style="fill:#fca311;fill-opacity:1;fill-rule:nonzero;stroke:none;stroke-width:0.199672" />
    <path
       id="path2207"
       d="m 0,0 v 0 c -14.496,-10.409 -34.024,-10.382 -48.492,0.066 l -121.635,87.845 v 0 c 14.372,10.468 33.846,10.508 48.26,0.098 z"
       style="fill:#192c55;fill-opacity:1;fill-rule:nonzero;stroke:none"
       transform="matrix(0.17043708,0,0,-0.23392222,50.524318,221.27413)"
       clip-path="url(#clipPath2208)" />
    <path
       id="path2209"
       d="m 0,0 v 0 c -14.496,-10.409 -34.024,-10.382 -48.491,0.066 l -83.383,60.218 0.16,0.115 c 14.364,10.358 33.747,10.352 48.104,-0.016 z"
       style="fill:#192c55;fill-opacity:1;fill-rule:nonzero;stroke:none"
       transform="matrix(0.17043708,0,0,-0.23392222,45.875847,227.46319)"
       clip-path="url(#clipPath2210)" />
    <path
       id="path2211"
       d="m 0,0 -55.238,-39.88 -24.625,-17.796 c -4.703,20.761 1.181,35.809 13.096,44.414 L 11.572,43.312 C 17.625,28.874 11.913,8.604 0,0"
       style="fill:#192c55;fill-opacity:1;fill-rule:nonzero;stroke:none"
       transform="matrix(0.17043708,0,0,-0.23392222,48.551897,235.57186)"
       clip-path="url(#clipPath2212)" />
    <path
       id="path2213"
       d="m 0,0 -27.964,-20.193 -24.625,-17.796 c -4.703,20.761 1.181,35.809 13.096,44.414 l 51.065,36.887 v 0 C 17.625,28.874 11.913,8.604 0,0"
       style="fill:#192c55;fill-opacity:1;fill-rule:nonzero;stroke:none"
       transform="matrix(0.17043708,0,0,-0.23392222,43.903474,250.96625)"
       clip-path="url(#clipPath2214)" />
    <path
       id="path2215"
       d="m 0,0 9.114,-22.138 c 0.392,-0.952 1.286,-1.601 2.312,-1.68 l 23.871,-1.827 -18.238,-15.509 c -0.784,-0.666 -1.126,-1.718 -0.883,-2.717 l 5.639,-23.268 -20.386,12.553 c -0.876,0.54 -1.982,0.54 -2.858,0 l -20.386,-12.553 5.639,23.268 c 0.243,0.999 -0.099,2.051 -0.883,-2.717 l -18.238,15.509 23.871,1.827 c 1.026,0.079 1.92,0.728 2.312,1.68 z"
       style="fill:#fca311;fill-opacity:1;fill-rule:nonzero;stroke:none"
       transform="matrix(0.17043708,0,0,-0.23392222,46.76205,193.98432)"
       clip-path="url(#clipPath2216)" />
    <path
       id="path2217"
       d="m 0,0 v 0 c -14.496,-10.409 -34.024,-10.382 -48.492,0.066 l -121.635,87.845 v 0 c 14.372,10.468 33.846,10.508 48.26,0.098 z"
       style="fill:#ffffff;fill-opacity:1;fill-rule:nonzero;stroke:none"
       transform="matrix(0.17043708,0,0,-0.23392222,95.637914,221.27413)"
       clip-path="url(#clipPath2218)" />
    <path
       id="path2219"
       d="m 0,0 v 0 c -14.496,-10.409 -34.024,-10.382 -48.491,0.066 l -83.383,60.218 0.16,0.115 c 14.364,10.358 33.747,10.352 48.104,-0.016 z"
       style="fill:#ffffff;fill-opacity:1;fill-rule:nonzero;stroke:none"
       transform="matrix(0.17043708,0,0,-0.23392222,90.989491,227.46319)"
       clip-path="url(#clipPath2220)" />
    <path
       id="path2221"
       d="m 0,0 -55.238,-39.88 -24.625,-17.796 c -4.703,20.761 1.181,35.809 13.096,44.414 L 11.572,43.312 C 17.625,28.874 11.913,8.604 0,0"
       style="fill:#ffffff;fill-opacity:1;fill-rule:nonzero;stroke:none"
       transform="matrix(0.17043708,0,0,-0.23392222,93.665541,235.57186)"
       clip-path="url(#clipPath2222)" />
    <path
       id="path2223"
       d="m 0,0 -27.964,-20.193 -24.625,-17.796 c -4.703,20.761 1.181,35.809 13.096,44.414 l 51.065,36.887 v 0 C 17.625,28.874 11.913,8.604 0,0"
       style="fill:#ffffff;fill-opacity:1;fill-rule:nonzero;stroke:none"
       transform="matrix(0.17043708,0,0,-0.23392222,89.01707,250.96625)"
       clip-path="url(#clipPath2224)" />
    <path
       id="path2225"
       d="m 0,0 9.114,-22.138 c 0.392,-0.952 1.286,-1.601 2.312,-1.68 l 23.871,-1.827 -18.238,-15.509 c -0.784,-0.666 -1.126,-1.718 -0.883,-2.717 l 5.639,-23.268 -20.386,12.553 c -0.876,0.54 -1.982,0.54 -2.858,0 l -20.386,-12.553 5.639,23.268 c 0.243,0.999 -0.099,2.051 -0.883,-2.717 l -18.238,15.509 23.871,1.827 c 1.026,0.079 1.92,0.728 2.312,1.68 z"
       style="fill:#fca311;fill-opacity:1;fill-rule:nonzero;stroke:none"
       transform="matrix(0.17043708,0,0,-0.23392222,91.875839,193.98432)"
       clip-path="url(#clipPath2226)" />
    <path
       id="path2227"
       d="m 0,0 v 0 c -14.496,-10.409 -34.024,-10.382 -48.492,0.066 l -121.635,87.845 v 0 c 14.372,10.468 33.846,10.508 48.26,0.098 z"
       style="fill:#192c55;fill-opacity:1;fill-rule:nonzero;stroke:none"
       transform="matrix(0.17043708,0,0,-0.23392222,140.88026,221.27413)"
       clip-path="url(#clipPath2228)" />
    <path
       id="path2229"
       d="m 0,0 v 0 c -14.496,-10.409 -34.024,-10.382 -48.491,0.066 l -83.383,60.218 0.16,0.115 c 14.364,10.358 33.747,10.352 48.104,-0.016 z"
       style="fill:#192c55;fill-opacity:1;fill-rule:nonzero;stroke:none"
       transform="matrix(0.17043708,0,0,-0.23392222,136.23184,227.46319)"
       clip-path="url(#clipPath2230)" />
    <path
       id="path2231"
       d="m 0,0 -55.238,-39.88 -24.625,-17.796 c -4.703,20.761 1.181,35.809 13.096,44.414 l 78.34,56.574 C 17.625,28.874 11.913,8.604 0,0"
       style="fill:#192c55;fill-opacity:1;fill-rule:nonzero;stroke:none"
       transform="matrix(0.17043708,0,0,-0.23392222,138.90789,235.57186)"
       clip-path="url(#clipPath2232)" />
    <path
       id="path2233"
       d="m 0,0 -27.964,-20.193 -24.625,-17.796 c -4.703,20.761 1.181,35.809 13.096,44.414 l 51.065,36.887 v 0 C 17.625,28.874 11.913,8.604 0,0"
       style="fill:#192c55;fill-opacity:1;fill-rule:nonzero;stroke:none"
       transform="matrix(0.17043708,0,0,-0.23392222,134.25946,250.96625)"
       clip-path="url(#clipPath2234)" />
    <path
       id="path2235"
       d="m 0,0 9.114,-22.138 c 0.392,-0.952 1.286,-1.601 2.312,-1.68 l 23.871,-1.827 -18.238,-15.509 c -0.784,-0.666 -1.126,-1.718 -0.883,-2.717 l 5.639,-23.268 -20.386,12.553 c -0.876,0.54 -1.982,0.54 -2.858,0 l -20.386,-12.553 5.639,23.268 c 0.243,0.999 -0.099,2.051 -0.883,-2.717 l -18.238,15.509 23.871,1.827 c 1.026,0.079 1.92,0.728 2.312,1.68 z"
       style="fill:#ffffff;fill-opacity:1;fill-rule:nonzero;stroke:none"
       transform="matrix(0.17043708,0,0,-0.23392222,137.11818,193.98432)"
       clip-path="url(#clipPath2236)" />
    <path
       id="path2237"
       d="m 0,0 v 0 c -14.496,-10.409 -34.024,-10.382 -48.491,0.066 l -121.636,87.845 v 0 c 14.372,10.468 33.846,10.508 48.26,0.098 z"
       style="fill:#192c55;fill-opacity:1;fill-rule:nonzero;stroke:none"
       transform="matrix(0.17043708,0,0,-0.23392222,186.10831,221.27413)"
       clip-path="url(#clipPath2238)" />
    <path
       id="path2239"
       d="m 0,0 v 0 c -14.496,-10.409 -34.024,-10.382 -48.491,0.066 l -83.383,60.218 0.16,0.115 c 14.364,10.358 33.747,10.352 48.104,-0.016 z"
       style="fill:#192c55;fill-opacity:1;fill-rule:nonzero;stroke:none"
       transform="matrix(0.17043708,0,0,-0.23392222,181.45984,227.46319)"
       clip-path="url(#clipPath2240)" />
    <path
       id="path2241"
       d="m 0,0 -55.238,-39.88 -24.625,-17.796 c -4.703,20.761 1.181,35.809 13.096,44.414 L 11.572,43.312 C 17.625,28.874 11.913,8.604 0,0"
       style="fill:#192c55;fill-opacity:1;fill-rule:nonzero;stroke:none"
       transform="matrix(0.17043708,0,0,-0.23392222,184.13594,235.57186)"
       clip-path="url(#clipPath2242)" />
    <path
       id="path2243"
       d="m 0,0 -27.964,-20.193 -24.625,-17.796 c -4.703,20.761 1.181,35.809 13.096,44.414 l 51.066,36.887 v 0 C 17.625,28.874 11.913,8.604 0,0"
       style="fill:#192c55;fill-opacity:1;fill-rule:nonzero;stroke:none"
       transform="matrix(0.17043708,0,0,-0.23392222,179.48746,250.96625)"
       clip-path="url(#clipPath2244)" />
    <path
       id="path2245"
       d="m 0,0 9.114,-22.138 c 0.392,-0.952 1.286,-1.601 2.312,-1.68 l 23.871,-1.827 -18.238,-15.509 c -0.784,-0.666 -1.126,-1.718 -0.883,-2.717 l 5.639,-23.268 -20.386,12.553 c -0.876,0.54 -1.982,0.54 -2.858,0 l -20.386,-12.553 5.639,23.268 c 0.243,0.999 -0.099,2.051 -0.883,-2.717 l -18.238,15.509 23.871,1.827 c 1.026,0.079 1.92,0.728 2.312,1.68 z"
       style="fill:#fca311;fill-opacity:1;fill-rule:nonzero;stroke:none"
       transform="matrix(0.17043708,0,0,-0.23392222,182.34609,193.98432)"
       clip-path="url(#clipPath2246)" />
  
  </g>
</svg>
