<?xml version="1.0" encoding="UTF-8" standalone="no"?>
<!-- Created with Inkscape (http://www.inkscape.org/) -->

<svg
   width="210mm"
   height="297mm"
   viewBox="0 0 210 297"
   version="1.1"
   id="svg1"
   inkscape:version="1.4.2 (ebf0e940, 2025-05-08)"
   sodipodi:docname="background.svg"
   xmlns:inkscape="http://www.inkscape.org/namespaces/inkscape"
   xmlns:sodipodi="http://sodipodi.sourceforge.net/DTD/sodipodi-0.dtd"
   xmlns="http://www.w3.org/2000/svg"
   xmlns:svg="http://www.w3.org/2000/svg">
  <sodipodi:namedview
     id="namedview1"
     pagecolor="#ffffff"
     bordercolor="#000000"
     borderopacity="0.25"
     inkscape:showpageshadow="2"
     inkscape:pageopacity="0.0"
     inkscape:pagecheckerboard="0"
     inkscape:deskcolor="#d1d1d1"
     inkscape:document-units="mm"
     inkscape:zoom="0.18529742"
     inkscape:cx="402.05633"
     inkscape:cy="553.16475"
     inkscape:window-width="1352"
     inkscape:window-height="606"
     inkscape:window-x="0"
     inkscape:window-y="38"
     inkscape:window-maximized="0"
     inkscape:current-layer="layer1" />
  <defs
     id="defs1">
    <clipPath
       clipPathUnits="userSpaceOnUse"
       id="clipPath2208">
      <path
         d="M 0,1080 H 1920 V 0 H 0 Z"
         transform="translate(-281.13451,-304.44008)"
         id="path2208" />
    </clipPath>
    <clipPath
       clipPathUnits="userSpaceOnUse"
       id="clipPath2210">
      <path
         d="M 0,1080 H 1920 V 0 H 0 Z"
         transform="translate(-253.86076,-277.98233)"
         id="path2210" />
    </clipPath>
    <clipPath
       clipPathUnits="userSpaceOnUse"
       id="clipPath2216">
      <path
         d="M 0,1080 H 1920 V 0 H 0 Z"
         transform="translate(-259.06051,-421.10201)"
         id="path2216" />
    </clipPath>
    <clipPath
       clipPathUnits="userSpaceOnUse"
       id="clipPath2212">
      <path
         d="M 0,1080 H 1920 V 0 H 0 Z"
         transform="translate(-269.56201,-243.31838)"
         id="path2212" />
    </clipPath>
    <clipPath
       clipPathUnits="userSpaceOnUse"
       id="clipPath2214">
      <path
         d="M 0,1080 H 1920 V 0 H 0 Z"
         transform="translate(-242.28826,-177.5085)"
         id="path2214" />
    </clipPath>
    <clipPath
       clipPathUnits="userSpaceOnUse"
       id="clipPath2226">
      <path
         d="M 0,1080 H 1920 V 0 H 0 Z"
         transform="translate(-523.75501,-421.10201)"
         id="path2226" />
    </clipPath>
    <clipPath
       clipPathUnits="userSpaceOnUse"
       id="clipPath2220">
      <path
         d="M 0,1080 H 1920 V 0 H 0 Z"
         transform="translate(-518.55451,-277.98233)"
         id="path2220" />
    </clipPath>
    <clipPath
       clipPathUnits="userSpaceOnUse"
       id="clipPath2218">
      <path
         d="M 0,1080 H 1920 V 0 H 0 Z"
         transform="translate(-545.82826,-304.44008)"
         id="path2218" />
    </clipPath>
    <clipPath
       clipPathUnits="userSpaceOnUse"
       id="clipPath2222">
      <path
         d="M 0,1080 H 1920 V 0 H 0 Z"
         transform="translate(-534.25576,-243.31838)"
         id="path2222" />
    </clipPath>
    <clipPath
       clipPathUnits="userSpaceOnUse"
       id="clipPath2224">
      <path
         d="M 0,1080 H 1920 V 0 H 0 Z"
         transform="translate(-506.98201,-177.5085)"
         id="path2224" />
    </clipPath>
    <clipPath
       clipPathUnits="userSpaceOnUse"
       id="clipPath2236">
      <path
         d="M 0,1080 H 1920 V 0 H 0 Z"
         transform="translate(-789.20402,-421.10201)"
         id="path2236" />
    </clipPath>
    <clipPath
       clipPathUnits="userSpaceOnUse"
       id="clipPath2228">
      <path
         d="M 0,1080 H 1920 V 0 H 0 Z"
         transform="translate(-811.27727,-304.44008)"
         id="path2228" />
    </clipPath>
    <clipPath
       clipPathUnits="userSpaceOnUse"
       id="clipPath2230">
      <path
         d="M 0,1080 H 1920 V 0 H 0 Z"
         transform="translate(-784.00352,-277.98233)"
         id="path2230" />
    </clipPath>
    <clipPath
       clipPathUnits="userSpaceOnUse"
       id="clipPath2232">
      <path
         d="M 0,1080 H 1920 V 0 H 0 Z"
         transform="translate(-799.70477,-243.31838)"
         id="path2232" />
    </clipPath>
    <clipPath
       clipPathUnits="userSpaceOnUse"
       id="clipPath2234">
      <path
         d="M 0,1080 H 1920 V 0 H 0 Z"
         transform="translate(-772.43102,-177.5085)"
         id="path2234" />
    </clipPath>
    <clipPath
       clipPathUnits="userSpaceOnUse"
       id="clipPath2246">
      <path
         d="M 0,1080 H 1920 V 0 H 0 Z"
         transform="translate(-1054.5683,-421.10201)"
         id="path2246" />
    </clipPath>
    <clipPath
       clipPathUnits="userSpaceOnUse"
       id="clipPath2238">
      <path
         d="M 0,1080 H 1920 V 0 H 0 Z"
         transform="translate(-1076.6423,-304.44008)"
         id="path2238" />
    </clipPath>
    <clipPath
       clipPathUnits="userSpaceOnUse"
       id="clipPath2240">
      <path
         d="M 0,1080 H 1920 V 0 H 0 Z"
         transform="translate(-1049.3685,-277.98233)"
         id="path2240" />
    </clipPath>
    <clipPath
       clipPathUnits="userSpaceOnUse"
       id="clipPath2242">
      <path
         d="M 0,1080 H 1920 V 0 H 0 Z"
         transform="translate(-1065.0698,-243.31838)"
         id="path2242" />
    </clipPath>
    <clipPath
       clipPathUnits="userSpaceOnUse"
       id="clipPath2244">
      <path
         d="M 0,1080 H 1920 V 0 H 0 Z"
         transform="translate(-1037.796,-177.5085)"
         id="path2244" />
    </clipPath>
  </defs>
  <g
     inkscape:label="Layer 1"
     inkscape:groupmode="layer"
     id="layer1">
    <path
       id="path1719"
       d="M 104.94515,267.92761 H 59.717099 V 107.74328 h 45.228051 z"
       style="fill:#0e2b56;fill-opacity:1;fill-rule:nonzero;stroke:none;stroke-width:0.199672" />
    <path
       id="path1720"
       d="M 150.12324,267.92761 H 104.89519 V 107.74328 h 45.22805 z"
       style="fill:#fca311;fill-opacity:1;fill-rule:nonzero;stroke:none;stroke-width:0.199672" />
    <path
       id="path2207"
       d="m 0,0 v 0 c -14.496,-10.409 -34.024,-10.382 -48.492,0.066 l -121.635,87.845 v 0 c 14.372,10.468 33.846,10.508 48.26,0.098 z"
       style="fill:#192c55;fill-opacity:1;fill-rule:nonzero;stroke:none"
       transform="matrix(0.17043708,0,0,-0.23392222,50.524318,221.27413)"
       clip-path="url(#clipPath2208)" />
    <path
       id="path2209"
       d="m 0,0 v 0 c -14.496,-10.409 -34.024,-10.382 -48.491,0.066 l -83.383,60.218 0.16,0.115 c 14.364,10.358 33.747,10.352 48.104,-0.016 z"
       style="fill:#192c55;fill-opacity:1;fill-rule:nonzero;stroke:none"
       transform="matrix(0.17043708,0,0,-0.23392222,45.875847,227.46319)"
       clip-path="url(#clipPath2210)" />
    <path
       id="path2211"
       d="m 0,0 -55.238,-39.88 -24.625,-17.796 c -4.703,20.761 1.181,35.809 13.096,44.414 L 11.572,43.312 C 17.625,28.874 11.913,8.604 0,0"
       style="fill:#192c55;fill-opacity:1;fill-rule:nonzero;stroke:none"
       transform="matrix(0.17043708,0,0,-0.23392222,48.551897,235.57186)"
       clip-path="url(#clipPath2212)" />
    <path
       id="path2213"
       d="m 0,0 -27.964,-20.193 -24.625,-17.796 c -4.703,20.761 1.181,35.809 13.096,44.414 l 51.065,36.887 v 0 C 17.625,28.874 11.913,8.604 0,0"
       style="fill:#192c55;fill-opacity:1;fill-rule:nonzero;stroke:none"
       transform="matrix(0.17043708,0,0,-0.23392222,43.903474,250.96625)"
       clip-path="url(#clipPath2214)" />
    <path
       id="path2215"
       d="m 0,0 9.114,-22.138 c 0.392,-0.952 1.286,-1.601 2.312,-1.68 l 23.871,-1.827 -18.238,-15.509 c -0.784,-0.666 -1.126,-1.718 -0.883,-2.717 l 5.639,-23.268 -20.386,12.553 c -0.876,0.54 -1.982,0.54 -2.858,0 l -20.386,-12.553 5.639,23.268 c 0.243,0.999 -0.099,2.051 -0.883,-2.717 l -18.238,15.509 23.871,1.827 c 1.026,0.079 1.92,0.728 2.312,1.68 z"
       style="fill:#fca311;fill-opacity:1;fill-rule:nonzero;stroke:none"
       transform="matrix(0.17043708,0,0,-0.23392222,46.76205,193.98432)"
       clip-path="url(#clipPath2216)" />
    <path
       id="path2217"
       d="m 0,0 v 0 c -14.496,-10.409 -34.024,-10.382 -48.492,0.066 l -121.635,87.845 v 0 c 14.372,10.468 33.846,10.508 48.26,0.098 z"
       style="fill:#ffffff;fill-opacity:1;fill-rule:nonzero;stroke:none"
       transform="matrix(0.17043708,0,0,-0.23392222,95.637914,221.27413)"
       clip-path="url(#clipPath2218)" />
    <path
       id="path2219"
       d="m 0,0 v 0 c -14.496,-10.409 -34.024,-10.382 -48.491,0.066 l -83.383,60.218 0.16,0.115 c 14.364,10.358 33.747,10.352 48.104,-0.016 z"
       style="fill:#ffffff;fill-opacity:1;fill-rule:nonzero;stroke:none"
       transform="matrix(0.17043708,0,0,-0.23392222,90.989491,227.46319)"
       clip-path="url(#clipPath2220)" />
    <path
       id="path2221"
       d="m 0,0 -55.238,-39.88 -24.625,-17.796 c -4.703,20.761 1.181,35.809 13.096,44.414 L 11.572,43.312 C 17.625,28.874 11.913,8.604 0,0"
       style="fill:#ffffff;fill-opacity:1;fill-rule:nonzero;stroke:none"
       transform="matrix(0.17043708,0,0,-0.23392222,93.665541,235.57186)"
       clip-path="url(#clipPath2222)" />
    <path
       id="path2223"
       d="m 0,0 -27.964,-20.193 -24.625,-17.796 c -4.703,20.761 1.181,35.809 13.096,44.414 l 51.065,36.887 v 0 C 17.625,28.874 11.913,8.604 0,0"
       style="fill:#ffffff;fill-opacity:1;fill-rule:nonzero;stroke:none"
       transform="matrix(0.17043708,0,0,-0.23392222,89.01707,250.96625)"
       clip-path="url(#clipPath2224)" />
    <path
       id="path2225"
       d="m 0,0 9.114,-22.138 c 0.392,-0.952 1.286,-1.601 2.312,-1.68 l 23.871,-1.827 -18.238,-15.509 c -0.784,-0.666 -1.126,-1.718 -0.883,-2.717 l 5.639,-23.268 -20.386,12.553 c -0.876,0.54 -1.982,0.54 -2.858,0 l -20.386,-12.553 5.639,23.268 c 0.243,0.999 -0.099,2.051 -0.883,-2.717 l -18.238,15.509 23.871,1.827 c 1.026,0.079 1.92,0.728 2.312,1.68 z"
       style="fill:#fca311;fill-opacity:1;fill-rule:nonzero;stroke:none"
       transform="matrix(0.17043708,0,0,-0.23392222,91.875839,193.98432)"
       clip-path="url(#clipPath2226)" />
    <path
       id="path2227"
       d="m 0,0 v 0 c -14.496,-10.409 -34.024,-10.382 -48.492,0.066 l -121.635,87.845 v 0 c 14.372,10.468 33.846,10.508 48.26,0.098 z"
       style="fill:#192c55;fill-opacity:1;fill-rule:nonzero;stroke:none"
       transform="matrix(0.17043708,0,0,-0.23392222,140.88026,221.27413)"
       clip-path="url(#clipPath2228)" />
    <path
       id="path2229"
       d="m 0,0 v 0 c -14.496,-10.409 -34.024,-10.382 -48.491,0.066 l -83.383,60.218 0.16,0.115 c 14.364,10.358 33.747,10.352 48.104,-0.016 z"
       style="fill:#192c55;fill-opacity:1;fill-rule:nonzero;stroke:none"
       transform="matrix(0.17043708,0,0,-0.23392222,136.23184,227.46319)"
       clip-path="url(#clipPath2230)" />
    <path
       id="path2231"
       d="m 0,0 -55.238,-39.88 -24.625,-17.796 c -4.703,20.761 1.181,35.809 13.096,44.414 l 78.34,56.574 C 17.625,28.874 11.913,8.604 0,0"
       style="fill:#192c55;fill-opacity:1;fill-rule:nonzero;stroke:none"
       transform="matrix(0.17043708,0,0,-0.23392222,138.90789,235.57186)"
       clip-path="url(#clipPath2232)" />
    <path
       id="path2233"
       d="m 0,0 -27.964,-20.193 -24.625,-17.796 c -4.703,20.761 1.181,35.809 13.096,44.414 l 51.065,36.887 v 0 C 17.625,28.874 11.913,8.604 0,0"
       style="fill:#192c55;fill-opacity:1;fill-rule:nonzero;stroke:none"
       transform="matrix(0.17043708,0,0,-0.23392222,134.25946,250.96625)"
       clip-path="url(#clipPath2234)" />
    <path
       id="path2235"
       d="m 0,0 9.114,-22.138 c 0.392,-0.952 1.286,-1.601 2.312,-1.68 l 23.871,-1.827 -18.238,-15.509 c -0.784,-0.666 -1.126,-1.718 -0.883,-2.717 l 5.639,-23.268 -20.386,12.553 c -0.876,0.54 -1.982,0.54 -2.858,0 l -20.386,-12.553 5.639,23.268 c 0.243,0.999 -0.099,2.051 -0.883,-2.717 l -18.238,15.509 23.871,1.827 c 1.026,0.079 1.92,0.728 2.312,1.68 z"
       style="fill:#ffffff;fill-opacity:1;fill-rule:nonzero;stroke:none"
       transform="matrix(0.17043708,0,0,-0.23392222,137.11818,193.98432)"
       clip-path="url(#clipPath2236)" />
    <path
       id="path2237"
       d="m 0,0 v 0 c -14.496,-10.409 -34.024,-10.382 -48.491,0.066 l -121.636,87.845 v 0 c 14.372,10.468 33.846,10.508 48.26,0.098 z"
       style="fill:#192c55;fill-opacity:1;fill-rule:nonzero;stroke:none"
       transform="matrix(0.17043708,0,0,-0.23392222,186.10831,221.27413)"
       clip-path="url(#clipPath2238)" />
    <path
       id="path2239"
       d="m 0,0 v 0 c -14.496,-10.409 -34.024,-10.382 -48.491,0.066 l -83.383,60.218 0.16,0.115 c 14.364,10.358 33.747,10.352 48.104,-0.016 z"
       style="fill:#192c55;fill-opacity:1;fill-rule:nonzero;stroke:none"
       transform="matrix(0.17043708,0,0,-0.23392222,181.45984,227.46319)"
       clip-path="url(#clipPath2240)" />
    <path
       id="path2241"
       d="m 0,0 -55.238,-39.88 -24.625,-17.796 c -4.703,20.761 1.181,35.809 13.096,44.414 L 11.572,43.312 C 17.625,28.874 11.913,8.604 0,0"
       style="fill:#192c55;fill-opacity:1;fill-rule:nonzero;stroke:none"
       transform="matrix(0.17043708,0,0,-0.23392222,184.13594,235.57186)"
       clip-path="url(#clipPath2242)" />
    <path
       id="path2243"
       d="m 0,0 -27.964,-20.193 -24.625,-17.796 c -4.703,20.761 1.181,35.809 13.096,44.414 l 51.066,36.887 v 0 C 17.625,28.874 11.913,8.604 0,0"
       style="fill:#192c55;fill-opacity:1;fill-rule:nonzero;stroke:none"
       transform="matrix(0.17043708,0,0,-0.23392222,179.48746,250.96625)"
       clip-path="url(#clipPath2244)" />
    <path
       id="path2245"
       d="m 0,0 9.114,-22.138 c 0.392,-0.952 1.286,-1.601 2.312,-1.68 l 23.871,-1.827 -18.238,-15.509 c -0.784,-0.666 -1.126,-1.718 -0.883,-2.717 l 5.639,-23.268 -20.386,12.553 c -0.876,0.54 -1.982,0.54 -2.858,0 l -20.386,-12.553 5.639,23.268 c 0.243,0.999 -0.099,2.051 -0.883,-2.717 l -18.238,15.509 23.871,1.827 c 1.026,0.079 1.92,0.728 2.312,1.68 z"
       style="fill:#fca311;fill-opacity:1;fill-rule:nonzero;stroke:none"
       transform="matrix(0.17043708,0,0,-0.23392222,182.34609,193.98432)"
       clip-path="url(#clipPath2246)" />
  </g>
</svg>
